<svg width="120" height="120" viewBox="0 0 120 120" fill="none" xmlns="http://www.w3.org/2000/svg">
<g clip-path="url(#clip0_1_2)">
<path d="M2.35999 6.90002H117.65V84.42H2.35999V6.90002Z" fill="url(#paint0_linear_1_2)"/>
<path d="M115.29 9.25999V82.07H4.71V9.25999H115.29M120 4.54999H0V86.78H120V4.54999Z" fill="url(#paint1_linear_1_2)"/>
<path d="M94.9 75.85C93.65 73.58 95.24 71.27 97.96 68.41C102.27 63.87 106.96 53.34 102.6 42.65C102.63 42.59 101.74 40.79 101.77 40.73L99.98 40.64C99.41 40.56 79.72 40.52 60.01 40.52C40.3 40.52 20.61 40.56 20.04 40.64C20.04 40.64 17.39 42.59 17.41 42.65C13.06 53.34 17.74 63.86 22.05 68.41C24.76 71.27 26.35 73.58 25.11 75.85C23.9 78.06 20.3 78.38 20.3 78.38C20.3 78.38 21.13 80.64 23.13 81.86C24.98 82.99 27.26 83.25 28.83 83.29C28.83 83.29 34.98 91.8 51.06 91.8H68.96C85.04 91.8 91.19 83.29 91.19 83.29C92.76 83.25 95.04 82.99 96.89 81.86C98.89 80.64 99.72 78.38 99.72 78.38C99.72 78.38 96.11 78.06 94.9 75.85V75.85Z" fill="#312D2D"/>
<path d="M59.99 91.79V82.35L88.56 80.09L91.16 83.29C91.16 83.29 85.01 91.8 68.93 91.8L59.99 91.79V91.79Z" fill="url(#paint2_radial_1_2)"/>
<path d="M91.1 79.16C86.82 72.66 96.31 70.23 96.31 70.23L96.32 70.24C94.67 72.29 93.92 74.08 94.89 75.85C96.1 78.06 99.7 78.38 99.7 78.38C99.7 78.38 94.79 82.74 91.1 79.16Z" fill="url(#paint3_radial_1_2)"/>
<path d="M102.62 42.65C106.87 53 102.4 63.66 98.21 68.16C97.64 68.78 95.2 71.17 94.64 73.08C94.64 73.08 85.1 59.77 82.25 51.95C81.68 50.37 81.15 48.75 81.08 47.07C81.03 45.81 81.22 44.31 81.95 43.24C82.84 41.93 102.11 41.54 102.11 41.54C102.11 41.55 102.62 42.65 102.62 42.65V42.65Z" fill="url(#paint4_radial_1_2)"/>
<path d="M17.4 42.65C13.16 53 17.63 63.66 21.81 68.15C22.39 68.77 24.82 71.16 25.38 73.07C25.38 73.07 34.92 59.76 37.77 51.94C38.35 50.36 38.87 48.74 38.94 47.06C38.99 45.8 38.8 44.3 38.07 43.23C37.18 41.92 36.14 42.27 34.63 42.27C31.75 42.27 19.14 41.53 18.16 41.53C18.17 41.55 17.4 42.65 17.4 42.65V42.65Z" fill="url(#paint5_radial_1_2)"/>
<path d="M60.03 91.79V82.35L31.46 80.09L28.86 83.29C28.86 83.29 35.01 91.8 51.09 91.8L60.03 91.79Z" fill="url(#paint6_radial_1_2)"/>
<path d="M28.92 79.16C33.2 72.66 23.71 70.23 23.71 70.23L23.7 70.24C25.35 72.29 26.1 74.08 25.13 75.85C23.92 78.06 20.32 78.38 20.32 78.38C20.32 78.38 25.23 82.74 28.92 79.16Z" fill="url(#paint7_radial_1_2)"/>
<path d="M110.5 116.75C110.5 101.28 85.16 93.1899 60.14 93.1899H60C34.86 93.2199 9.5 100.51 9.5 116.75V120H110.5V116.75Z" fill="url(#paint8_linear_1_2)"/>
<path d="M60 88.33H50.92V98.31L59.98 100.69L69.08 98.31V88.33H60Z" fill="#EDC391"/>
<path d="M8 116.75V120H40.89L42.22 92.96C23.52 95.72 8 103.15 8 116.75Z" fill="url(#paint9_linear_1_2)"/>
<path d="M77.78 92.96L79.1 120H112V116.75C112 103.15 96.48 95.72 77.78 92.96V92.96Z" fill="url(#paint10_linear_1_2)"/>
<path d="M50.03 88.12L60.02 100.94L43.78 107.58L41.37 93.04L50.03 88.12Z" fill="#66C0E8"/>
<path d="M69.97 88.12L59.98 100.94L76.22 107.58L78.63 93.04L69.97 88.12Z" fill="#66C0E8"/>
<path d="M44.88 91C44.88 91 43.74 93.72 42.94 97C41.35 103.52 41.25 112.8 41.25 112.8C41.25 112.8 34.36 110.46 32.21 104.75C29.67 98 33.96 94.29 33.96 94.29C33.96 94.29 34.86 93.91 38.64 91.83C42.42 89.75 44.88 91 44.88 91V91ZM75.12 91C75.12 91 76.26 93.72 77.06 97C78.65 103.52 78.75 112.8 78.75 112.8C78.75 112.8 85.64 110.46 87.79 104.75C90.33 98 86.04 94.29 86.04 94.29C86.04 94.29 85.14 93.91 81.36 91.83C77.58 89.75 75.12 91 75.12 91V91Z" fill="#AF5214"/>
<path d="M87.12 46.4301H32.47C26.58 46.4301 21.76 51.5701 21.76 57.8401C21.76 64.1101 26.58 69.2501 32.47 69.2501H87.12C93.01 69.2501 97.83 64.1101 97.83 57.8401C97.83 51.5701 93.01 46.4301 87.12 46.4301V46.4301Z" fill="#EDC391"/>
<path d="M59.79 7.07001C42.39 7.07001 26.27 25.68 26.27 52.47C26.27 79.11 42.88 92.28 59.79 92.28C76.7 92.28 93.31 79.1 93.31 52.46C93.31 25.68 77.2 7.07001 59.79 7.07001Z" fill="#F9DDBD"/>
<path d="M43.98 59.91C46.7028 59.91 48.91 57.6266 48.91 54.81C48.91 51.9933 46.7028 49.71 43.98 49.71C41.2572 49.71 39.05 51.9933 39.05 54.81C39.05 57.6266 41.2572 59.91 43.98 59.91Z" fill="#312D2D"/>
<path d="M75.13 59.91C77.8528 59.91 80.06 57.6266 80.06 54.81C80.06 51.9933 77.8528 49.71 75.13 49.71C72.4072 49.71 70.2 51.9933 70.2 54.81C70.2 57.6266 72.4072 59.91 75.13 59.91Z" fill="#312D2D"/>
<path d="M51.37 45.8201C50.44 44.5901 48.3 42.8101 44.14 42.8101C39.98 42.8101 37.83 44.6001 36.91 45.8201C36.5 46.3601 36.6 46.9901 36.89 47.3701C37.15 47.7201 37.93 48.0501 38.79 47.7601C39.65 47.4701 41.33 46.6001 44.14 46.5801C46.95 46.6001 48.63 47.4701 49.49 47.7601C50.35 48.0501 51.13 47.7301 51.39 47.3701C51.67 46.9901 51.78 46.3601 51.37 45.8201V45.8201ZM82.36 45.8201C81.43 44.5901 79.29 42.8101 75.13 42.8101C70.97 42.8101 68.82 44.6001 67.9 45.8201C67.49 46.3601 67.59 46.9901 67.88 47.3701C68.14 47.7201 68.92 48.0501 69.78 47.7601C70.64 47.4701 72.32 46.6001 75.13 46.5801C77.94 46.6001 79.62 47.4701 80.48 47.7601C81.34 48.0501 82.12 47.7301 82.38 47.3701C82.67 46.9901 82.77 46.3601 82.36 45.8201Z" fill="#454140"/>
<path d="M63.65 64.06C63.54 64.02 63.44 63.99 63.33 63.98H56.25C56.14 63.99 56.03 64.02 55.93 64.06C55.29 64.32 54.94 64.98 55.24 65.69C55.54 66.4 56.95 68.38 59.79 68.38C62.63 68.38 64.04 66.39 64.34 65.69C64.65 64.98 64.29 64.32 63.65 64.06V64.06Z" fill="#DBA689"/>
<path d="M68.32 72.14C65.14 74.03 54.69 74.03 51.51 72.14C49.68 71.05 47.81 72.72 48.57 74.38C49.32 76.01 55.01 79.8 59.94 79.8C64.87 79.8 70.49 76.01 71.24 74.38C72 72.72 70.15 71.05 68.32 72.14Z" fill="#444444"/>
<path d="M89.83 48.93C89.76 47.74 89.71 47.62 88.14 47.12C86.91 46.73 80.19 46.18 75.13 46.46C74.77 46.48 74.42 46.5 74.09 46.53C69.5 46.92 63.99 48.77 59.85 48.87C58.09 48.91 50.84 47.01 45.71 46.61C45.38 46.59 45.05 46.56 44.71 46.55C39.64 46.29 32.89 46.88 31.66 47.28C30.09 47.79 30.04 47.91 29.98 49.1C29.91 50.29 30.11 51.3 31.04 51.61C32.31 52.03 32.32 53.61 33.17 58.15C33.94 62.29 35.79 65.56 43.74 66.13C44.08 66.15 44.4 66.17 44.72 66.17C51.75 66.27 54.17 61.64 54.97 60.1C56.46 57.24 55.99 53.3 59.93 53.29C63.86 53.28 63.49 57.15 65 60C65.81 61.53 68.17 66.18 75.14 66.08C75.48 66.08 75.83 66.06 76.19 66.03C84.13 65.41 85.97 62.13 86.71 57.99C87.53 53.44 87.54 51.85 88.8 51.43C89.71 51.13 89.91 50.12 89.83 48.93V48.93ZM49.28 64.17C48.06 64.74 46.43 65.03 44.71 65.03C41.12 65.02 37.14 63.76 35.7 61.22C33.66 57.6 33.13 50.28 35.73 48.75C36.87 48.08 40.72 47.62 44.7 47.79C48.83 47.97 53.1 48.83 54.64 50.85C57.19 54.18 53.14 62.35 49.28 64.17ZM84.18 61.07C82.75 63.63 78.74 64.92 75.13 64.93C73.43 64.94 71.82 64.66 70.62 64.1C66.75 62.3 62.65 54.16 65.17 50.81C66.7 48.77 70.99 47.89 75.13 47.69C79.1 47.5 82.94 47.94 84.07 48.6C86.68 50.12 86.2 57.44 84.18 61.07V61.07Z" fill="#212121" stroke="#212121" stroke-width="0.55" stroke-miterlimit="10"/>
<path opacity="0.67" d="M97.67 117.61L98.24 115.41L98.25 115.36L100.18 107.76L93.28 105.78L58.36 95.75C58.31 95.74 58.27 95.74 58.23 95.72C56.6684 95.3089 55.008 95.5257 53.6043 96.3238C52.2006 97.1219 51.1653 98.4379 50.72 99.99L44.97 120H96.99L97.67 117.61V117.61Z" fill="url(#paint11_linear_1_2)"/>
<path d="M101.75 107.88C102.04 106.87 101.46 105.82 100.45 105.54L61.76 94.44C60.1833 93.9892 58.4922 94.1826 57.0579 94.9775C55.6237 95.7725 54.5634 97.104 54.11 98.68L48 120H98.28L101.75 107.88Z" fill="#424242"/>
<path d="M101.08 116.31C101.43 115.09 100.7 113.81 99.46 113.46L57.94 101.56C53.41 100.26 52.62 103.91 51.35 108.34L48 120H100.02L101.08 116.31V116.31Z" fill="url(#paint12_linear_1_2)"/>
<path d="M59.26 94.24C58.0654 94.3948 56.9422 94.8957 56.0288 95.6811C55.1155 96.4665 54.452 97.502 54.12 98.66L48 120H51.87L59.26 94.24Z" fill="url(#paint13_linear_1_2)"/>
<path opacity="0.2" d="M60.33 97.57C60.51 97.57 60.71 97.59 60.92 97.64L98.17 108.34L97.86 109.42C86.07 106.13 63.57 99.8 58.92 98.26C59.16 97.93 59.63 97.57 60.33 97.57ZM60.33 94.24C55.81 94.24 53.55 99.81 57.21 101.18C61.24 102.68 100.14 113.5 100.14 113.5L101.72 107.98C102.03 106.92 101.53 105.84 100.61 105.58L61.77 94.42C61.27 94.3 60.79 94.24 60.33 94.24Z" fill="#424242"/>
<path d="M99.37 108.12L59.57 96.7C58.49 96.39 57.31 97.16 56.95 98.41L56.89 98.63C56.53 99.88 57.12 101.16 58.2 101.47L98 112.89C98 112.89 97.66 112.06 98.07 110.59C98.48 109.11 99.37 108.12 99.37 108.12V108.12Z" fill="url(#paint14_linear_1_2)"/>
<path d="M100.07 21.11C97.63 17.42 92.16 12.47 87.25 12.14C86.46 7.42001 81.41 3.42001 76.52 1.87001C63.29 -2.31999 54.68 2.38001 50.06 4.90001C49.1 5.42001 42.89 8.87001 38.55 6.40001C35.83 4.85001 35.88 0.660012 35.88 0.660012C35.88 0.660012 27.36 3.91001 30.27 12.96C27.34 13.08 23.5 14.32 21.47 18.43C19.05 23.33 19.91 27.42 20.61 29.38C18.09 31.52 14.92 36.07 17.09 41.98C18.73 46.43 25.26 48.48 25.26 48.48C24.8 56.49 26.29 61.42 27.08 63.41C27.22 63.76 27.71 63.73 27.8 63.37C28.79 59.4 32.17 45.57 31.83 43.16C31.83 43.16 43.18 40.91 54 32.94C56.2 31.32 58.59 29.94 61.13 28.93C74.72 23.52 77.56 32.75 77.56 32.75C77.56 32.75 86.98 30.94 89.82 44.02C90.89 48.92 91.61 56.77 92.22 62.26C92.26 62.65 92.79 62.73 92.94 62.37C93.89 60.19 95.79 55.87 96.24 51.46C96.4 49.91 100.58 47.86 102.38 41.2C104.79 32.32 101.84 23.78 100.07 21.11V21.11Z" fill="#312D2D"/>
<path d="M96.22 51.5C96.38 49.95 100.56 47.9 102.36 41.24C102.55 40.53 102.71 39.81 102.86 39.09C104.32 31 101.7 23.57 100.07 21.11C97.81 17.7 92.97 13.22 88.38 12.3C87.98 12.25 87.59 12.2 87.22 12.18C87.22 12.18 87.55 14.33 86.68 16.04C85.56 18.26 83.27 18.79 83.27 18.79C95.24 30.77 94.39 40.79 96.22 51.5Z" fill="url(#paint15_radial_1_2)"/>
<path d="M52.95 3.38999C51.85 3.91999 50.89 4.44999 50.05 4.89999C49.09 5.41999 42.88 8.86999 38.54 6.39999C35.87 4.87999 35.87 0.819993 35.87 0.679993C34.64 2.24999 30.92 13.46 41.8 14.21C46.49 14.53 49.38 10.44 51.1 6.97999C51.72 5.71999 52.69 3.87999 52.95 3.38999V3.38999Z" fill="url(#paint16_radial_1_2)"/>
<path d="M75.16 1.47C82.48 3.45 86.05 7.18 87.24 12.15C87.59 13.61 88.01 27.23 62.01 11.75C52.34 5.99 54.98 2.39 56.11 1.98C60.53 0.379996 66.96 -0.750005 75.16 1.47V1.47Z" fill="url(#paint17_radial_1_2)"/>
<path d="M35.84 0.679973C35.83 0.689973 35.81 0.689973 35.78 0.709973H35.77C34.84 1.09997 27.53 4.48997 30.26 12.96L38.04 14.21C31.15 7.22997 35.87 0.659973 35.87 0.659973C35.87 0.659973 35.85 0.669973 35.84 0.679973Z" fill="url(#paint18_radial_1_2)"/>
<path d="M35.07 13.73L30.26 12.96C30.07 12.96 29.43 13.02 29.08 13.07C26.37 13.45 23.18 14.85 21.45 18.43C19.59 22.29 19.64 25.6 20.15 27.81C20.3 28.55 20.6 29.39 20.6 29.39C20.6 29.39 22.98 27.13 28.65 26.98L35.07 13.73Z" fill="url(#paint19_radial_1_2)"/>
<path d="M20.37 29.58C18 31.68 14.81 36.37 17.16 42.19C18.93 46.58 25.25 48.48 25.25 48.48C25.25 48.5 26.51 48.88 27.16 48.88L28.64 26.98C25.61 26.98 22.7 27.89 20.82 29.2C20.85 29.23 20.36 29.55 20.37 29.58Z" fill="url(#paint20_radial_1_2)"/>
</g>
<defs>
<linearGradient id="paint0_linear_1_2" x1="59.999" y1="7.39502" x2="59.999" y2="84.489" gradientUnits="userSpaceOnUse">
<stop stop-color="#26A69A"/>
<stop offset="1" stop-color="#00796B"/>
</linearGradient>
<linearGradient id="paint1_linear_1_2" x1="59.999" y1="4.54499" x2="59.999" y2="86.776" gradientUnits="userSpaceOnUse">
<stop stop-color="#8D6E63"/>
<stop offset="0.779" stop-color="#795548"/>
</linearGradient>
<radialGradient id="paint2_radial_1_2" cx="0" cy="0" r="1" gradientUnits="userSpaceOnUse" gradientTransform="translate(74.583 78.1505) scale(23.419 11.5034)">
<stop offset="0.728" stop-color="#454140" stop-opacity="0"/>
<stop offset="1" stop-color="#454140"/>
</radialGradient>
<radialGradient id="paint3_radial_1_2" cx="0" cy="0" r="1" gradientUnits="userSpaceOnUse" gradientTransform="translate(97.6509 74.6654) rotate(154.924) scale(6.92065 5.13414)">
<stop offset="0.663" stop-color="#454140"/>
<stop offset="1" stop-color="#454140" stop-opacity="0"/>
</radialGradient>
<radialGradient id="paint4_radial_1_2" cx="0" cy="0" r="1" gradientUnits="userSpaceOnUse" gradientTransform="translate(79.7147 55.0915) rotate(-94.2783) scale(30.3986 25.3353)">
<stop offset="0.725" stop-color="#454140" stop-opacity="0"/>
<stop offset="1" stop-color="#454140"/>
</radialGradient>
<radialGradient id="paint5_radial_1_2" cx="0" cy="0" r="1" gradientUnits="userSpaceOnUse" gradientTransform="translate(40.3084 55.0909) rotate(-85.7217) scale(30.3986 25.3353)">
<stop offset="0.725" stop-color="#454140" stop-opacity="0"/>
<stop offset="1" stop-color="#454140"/>
</radialGradient>
<radialGradient id="paint6_radial_1_2" cx="0" cy="0" r="1" gradientUnits="userSpaceOnUse" gradientTransform="translate(45.439 78.1505) rotate(180) scale(23.419 11.5034)">
<stop offset="0.728" stop-color="#454140" stop-opacity="0"/>
<stop offset="1" stop-color="#454140"/>
</radialGradient>
<radialGradient id="paint7_radial_1_2" cx="0" cy="0" r="1" gradientUnits="userSpaceOnUse" gradientTransform="translate(22.3729 74.6661) rotate(25.0761) scale(6.92065 5.13414)">
<stop offset="0.663" stop-color="#454140"/>
<stop offset="1" stop-color="#454140" stop-opacity="0"/>
</radialGradient>
<linearGradient id="paint8_linear_1_2" x1="60" y1="98.0919" x2="60" y2="113.062" gradientUnits="userSpaceOnUse">
<stop stop-color="#E1F5FE"/>
<stop offset="1" stop-color="#81D4FA"/>
</linearGradient>
<linearGradient id="paint9_linear_1_2" x1="25.113" y1="94.844" x2="25.113" y2="119.03" gradientUnits="userSpaceOnUse">
<stop stop-color="#FFA000"/>
<stop offset="0.341" stop-color="#FF9300"/>
<stop offset="0.972" stop-color="#FF7100"/>
<stop offset="1" stop-color="#FF6F00"/>
</linearGradient>
<linearGradient id="paint10_linear_1_2" x1="94.888" y1="94.565" x2="94.888" y2="119.193" gradientUnits="userSpaceOnUse">
<stop stop-color="#FFA000"/>
<stop offset="0.341" stop-color="#FF9300"/>
<stop offset="0.972" stop-color="#FF7100"/>
<stop offset="1" stop-color="#FF6F00"/>
</linearGradient>
<linearGradient id="paint11_linear_1_2" x1="75.569" y1="101.287" x2="72.946" y2="112.332" gradientUnits="userSpaceOnUse">
<stop offset="0.002" stop-color="#212121" stop-opacity="0.2"/>
<stop offset="1" stop-color="#212121" stop-opacity="0.6"/>
</linearGradient>
<linearGradient id="paint12_linear_1_2" x1="77.84" y1="106.902" x2="75.869" y2="113.514" gradientUnits="userSpaceOnUse">
<stop stop-color="#EF5350"/>
<stop offset="1" stop-color="#E53935"/>
</linearGradient>
<linearGradient id="paint13_linear_1_2" x1="54.405" y1="104.887" x2="56.268" y2="99.031" gradientUnits="userSpaceOnUse">
<stop stop-color="#212121"/>
<stop offset="1" stop-color="#424242"/>
</linearGradient>
<linearGradient id="paint14_linear_1_2" x1="56.9236" y1="98.5174" x2="98.6825" y2="110.501" gradientUnits="userSpaceOnUse">
<stop offset="0.01" stop-color="#BDBDBD"/>
<stop offset="0.987" stop-color="#F8F8F7"/>
</linearGradient>
<radialGradient id="paint15_radial_1_2" cx="0" cy="0" r="1" gradientUnits="userSpaceOnUse" gradientTransform="translate(78.0169 39.0514) rotate(72.0851) scale(35.6325 26.4384)">
<stop offset="0.699" stop-color="#454140" stop-opacity="0"/>
<stop offset="1" stop-color="#454140"/>
</radialGradient>
<radialGradient id="paint16_radial_1_2" cx="0" cy="0" r="1" gradientUnits="userSpaceOnUse" gradientTransform="translate(43.281 0.201521) rotate(28.2026) scale(9.34319 11.0783)">
<stop offset="0.58" stop-color="#454140"/>
<stop offset="1" stop-color="#454140" stop-opacity="0"/>
</radialGradient>
<radialGradient id="paint17_radial_1_2" cx="0" cy="0" r="1" gradientUnits="userSpaceOnUse" gradientTransform="translate(64.1617 17.1693) rotate(-157.19) scale(29.2196 16.4215)">
<stop offset="0.699" stop-color="#454140" stop-opacity="0"/>
<stop offset="1" stop-color="#454140"/>
</radialGradient>
<radialGradient id="paint18_radial_1_2" cx="0" cy="0" r="1" gradientUnits="userSpaceOnUse" gradientTransform="translate(39.529 8.72484) scale(8.575 10.4898)">
<stop offset="0.702" stop-color="#454140" stop-opacity="0"/>
<stop offset="1" stop-color="#454140"/>
</radialGradient>
<radialGradient id="paint19_radial_1_2" cx="0" cy="0" r="1" gradientUnits="userSpaceOnUse" gradientTransform="translate(38.3478 23.8614) rotate(-164.942) scale(16.0836 15.0513)">
<stop offset="0.66" stop-color="#454140" stop-opacity="0"/>
<stop offset="1" stop-color="#454140"/>
</radialGradient>
<radialGradient id="paint20_radial_1_2" cx="0" cy="0" r="1" gradientUnits="userSpaceOnUse" gradientTransform="translate(34.5363 39.3908) rotate(7.83355) scale(16.8865 23.7284)">
<stop offset="0.598" stop-color="#454140" stop-opacity="0"/>
<stop offset="1" stop-color="#454140"/>
</radialGradient>
<clipPath id="clip0_1_2">
<rect width="120" height="120" fill="white"/>
</clipPath>
</defs>
</svg>
